<?xml version="1.0" standalone="no"?>
<!DOCTYPE svg PUBLIC "-//W3C//DTD SVG 20010904//EN"
 "http://www.w3.org/TR/2001/REC-SVG-20010904/DTD/svg10.dtd">
<svg version="1.0" xmlns="http://www.w3.org/2000/svg"
 width="1000.000000pt" height="1000.000000pt" viewBox="0 0 1000.000000 1000.000000"
 preserveAspectRatio="xMidYMid meet">
<metadata>
Created by potrace 1.11, written by Peter Selinger 2001-2013
</metadata>
<g transform="translate(0.000000,1000.000000) scale(0.100000,-0.100000)"
fill="#000000" stroke="none">
<path d="M2403 8336 c-10 -5 -29 -11 -43 -12 -14 -1 -32 -4 -40 -7 -8 -3 -33
-11 -55 -18 -22 -6 -49 -17 -60 -22 -11 -6 -22 -12 -25 -12 -25 -7 -60 -27
-60 -35 0 -6 -5 -8 -10 -5 -6 3 -13 -1 -16 -9 -3 -9 -10 -14 -14 -11 -4 2 -15
-4 -25 -15 -10 -11 -24 -20 -31 -20 -7 0 -24 -11 -38 -25 -14 -14 -32 -25 -41
-25 -9 0 -13 -4 -10 -10 3 -5 2 -10 -4 -10 -14 0 -80 -67 -73 -74 3 -3 0 -6
-7 -6 -15 0 -41 -25 -41 -39 0 -6 -6 -11 -13 -11 -8 0 -20 -12 -28 -27 -8 -16
-26 -41 -41 -58 -16 -16 -28 -35 -28 -41 0 -6 -9 -19 -20 -29 -11 -10 -17 -21
-15 -25 3 -4 -2 -13 -11 -20 -8 -7 -13 -19 -10 -26 3 -7 -1 -14 -7 -17 -10 -4
-40 -79 -52 -127 -1 -3 -6 -23 -13 -44 -6 -22 -9 -42 -7 -46 3 -4 -1 -12 -8
-18 -15 -13 -17 -459 -1 -470 5 -4 9 -14 9 -22 -1 -16 9 -79 19 -119 3 -12 10
-29 16 -35 5 -7 8 -15 5 -17 -2 -3 0 -21 5 -40 5 -19 10 -38 11 -44 0 -5 6
-19 12 -30 6 -11 11 -33 12 -49 0 -16 6 -31 13 -34 7 -2 9 -8 6 -13 -3 -6 -1
-16 6 -23 6 -8 13 -25 15 -37 3 -13 9 -25 15 -27 6 -2 7 -8 4 -13 -3 -6 -1
-16 5 -23 6 -7 12 -21 14 -32 1 -10 7 -26 12 -34 5 -8 10 -21 12 -29 1 -8 7
-17 13 -21 7 -4 12 -11 12 -16 0 -5 8 -25 19 -45 10 -20 15 -39 12 -43 -4 -3
-1 -6 5 -6 7 0 12 -7 12 -15 0 -9 7 -18 15 -21 8 -4 13 -10 10 -14 -3 -4 6
-27 19 -51 14 -24 23 -46 20 -51 -3 -4 0 -8 5 -8 6 0 11 -7 11 -15 0 -9 7 -18
15 -21 8 -4 12 -10 9 -15 -3 -6 -1 -15 4 -22 5 -7 12 -24 16 -39 3 -16 11 -28
16 -28 5 0 7 -7 4 -15 -4 -8 1 -17 9 -21 9 -3 14 -11 11 -18 -2 -6 3 -21 13
-31 10 -11 31 -46 48 -77 16 -32 33 -58 38 -58 4 0 5 -4 2 -10 -5 -9 17 -90
32 -114 4 -6 8 -19 9 -30 0 -11 6 -22 13 -24 6 -2 9 -8 6 -13 -3 -5 -1 -26 4
-46 13 -46 11 -38 22 -93 5 -25 12 -61 15 -80 3 -19 10 -49 15 -66 5 -16 9
-59 9 -95 0 -71 3 -100 12 -114 10 -17 9 -618 -1 -653 -6 -18 -11 -76 -12
-130 -1 -53 -5 -109 -10 -124 -5 -19 -4 -28 4 -28 9 0 9 -2 0 -8 -6 -4 -13
-47 -16 -102 -3 -52 -8 -108 -12 -125 -3 -16 -7 -59 -8 -95 -2 -36 -5 -70 -9
-75 -3 -6 -6 -44 -8 -85 -3 -98 -4 -111 -16 -135 -11 -24 -11 -745 1 -825 4
-30 8 -70 9 -88 1 -18 6 -36 12 -40 5 -4 10 -25 12 -47 2 -22 7 -42 10 -45 4
-3 9 -23 10 -45 2 -22 8 -42 13 -43 5 -2 7 -7 4 -12 -6 -10 24 -70 35 -70 5 0
7 -6 4 -13 -5 -15 21 -83 36 -92 6 -4 8 -11 5 -16 -4 -5 5 -19 18 -31 14 -13
24 -25 24 -28 -1 -3 13 -26 30 -51 18 -26 30 -49 27 -52 -6 -6 166 -177 178
-177 5 0 18 -9 30 -20 12 -11 28 -20 35 -20 7 0 13 -3 13 -7 0 -13 68 -55 79
-49 5 4 12 2 16 -4 9 -14 85 -48 123 -55 17 -3 41 -9 54 -14 30 -11 349 -8
368 4 8 5 26 10 41 12 16 1 45 9 66 17 121 45 158 61 161 68 2 4 10 8 18 8 16
0 49 17 78 40 10 8 19 14 20 13 4 -6 46 11 46 18 0 5 8 9 18 9 10 0 28 9 40
20 12 11 26 20 32 20 5 0 10 4 10 9 0 5 14 14 30 21 17 7 30 16 30 20 0 4 16
15 35 24 19 9 35 21 35 27 0 6 5 7 10 4 6 -3 10 -3 10 2 0 4 14 14 30 21 17 8
28 18 24 23 -3 5 2 9 10 9 9 0 16 7 16 16 0 8 4 13 8 10 5 -3 15 4 22 15 8 10
20 19 28 19 7 0 15 7 18 15 4 8 9 13 13 12 8 -5 149 141 143 148 -3 3 -1 5 5
5 14 0 162 148 155 155 -3 3 -1 5 5 5 13 0 153 138 153 151 0 5 5 9 10 9 6 0
14 7 17 17 4 9 26 37 49 62 24 25 43 50 42 54 0 5 12 21 26 36 15 15 24 30 21
33 -4 3 5 15 19 25 14 11 31 32 37 47 7 14 17 26 22 26 6 0 7 3 4 6 -3 4 5 16
19 27 14 10 23 26 20 33 -3 8 1 14 10 14 8 0 13 4 10 9 -3 5 1 11 9 15 8 3 15
12 15 21 0 8 5 15 11 15 5 0 8 4 5 9 -3 5 1 12 9 15 8 3 14 11 13 18 -2 9 12
13 44 14 26 1 45 -3 42 -7 -3 -5 0 -9 6 -9 7 0 10 -7 6 -15 -3 -8 -2 -15 2
-15 4 0 20 -20 35 -45 16 -25 33 -45 39 -45 6 0 8 -6 5 -13 -2 -7 8 -26 24
-41 16 -16 29 -33 29 -38 0 -5 4 -6 10 -3 6 3 10 0 10 -8 0 -7 9 -23 19 -34
11 -12 17 -24 13 -28 -4 -3 11 -23 33 -44 22 -20 41 -44 43 -52 2 -8 8 -16 13
-17 5 -2 7 -8 3 -13 -3 -5 -1 -9 3 -9 13 0 66 -51 93 -90 30 -44 415 -430 428
-430 5 0 28 -18 51 -40 22 -22 45 -40 49 -40 5 0 26 -18 48 -40 21 -22 44 -40
50 -40 5 0 24 -14 42 -31 17 -17 36 -28 42 -24 5 3 10 -1 10 -9 0 -9 7 -16 15
-16 8 0 15 -5 15 -11 0 -5 4 -8 9 -4 5 3 17 -3 27 -12 9 -9 24 -18 32 -19 9
-2 19 -9 23 -17 5 -7 26 -19 49 -27 22 -7 40 -17 40 -22 0 -4 9 -8 20 -8 11 0
20 -4 20 -10 0 -5 9 -10 19 -10 11 0 23 -4 26 -10 3 -5 17 -10 31 -10 13 0 24
-4 24 -10 0 -5 9 -10 19 -10 11 0 23 -5 27 -11 3 -6 14 -9 23 -6 9 2 22 -2 29
-10 7 -7 23 -13 36 -13 12 0 26 -3 30 -7 23 -23 87 -30 258 -28 174 2 258 13
258 35 0 5 6 7 14 4 8 -3 25 0 38 7 13 7 25 13 28 14 3 0 23 11 45 24 22 14
43 24 48 23 4 -1 7 2 7 7 0 5 9 13 20 16 11 4 18 10 15 15 -3 4 5 10 18 14 20
5 174 146 160 146 -3 0 6 9 21 21 14 11 24 24 22 28 -3 4 6 19 20 34 14 15 21
27 17 27 -4 0 1 7 11 15 11 8 16 15 10 15 -5 0 -4 4 2 8 14 9 68 102 59 102
-4 0 2 16 14 36 12 19 21 41 21 48 0 7 9 30 19 52 11 23 21 52 23 65 2 13 6
29 9 34 3 6 7 28 8 50 1 21 6 44 10 50 11 13 22 59 27 115 3 25 8 61 11 80 18
100 -2 817 -23 852 -3 4 -5 52 -6 105 0 54 -4 105 -8 113 -4 8 -10 65 -14 125
-4 61 -11 146 -17 190 -5 44 -10 87 -11 95 0 8 -5 69 -10 135 -16 206 -7 879
12 915 4 8 9 33 11 55 2 22 6 42 10 45 4 3 8 25 10 50 1 25 6 50 10 55 4 6 9
24 10 40 2 17 8 33 13 36 5 4 8 18 9 33 0 14 3 26 6 26 6 0 31 78 29 90 -1 3
5 16 12 30 8 14 13 28 12 33 -1 4 3 7 8 7 6 0 10 9 10 19 0 10 7 21 15 25 8 3
14 9 13 13 -3 11 80 181 92 188 5 3 7 12 4 19 -3 7 2 19 11 26 8 7 15 19 15
26 0 8 4 14 10 14 5 0 7 7 4 15 -4 8 -1 15 5 15 6 0 11 6 11 14 0 7 7 19 15
26 8 7 12 17 9 22 -3 5 2 18 12 29 9 10 13 19 8 19 -5 0 0 7 10 15 11 8 16 15
11 15 -4 0 0 9 10 20 10 11 15 20 10 20 -4 0 -2 6 4 14 6 7 12 25 13 40 1 14
5 26 8 26 4 0 32 54 36 70 2 10 16 46 34 85 10 22 28 74 41 115 12 41 26 80
31 86 5 7 9 28 10 48 1 20 5 36 10 36 4 0 8 9 8 21 0 11 4 28 9 37 5 9 11 31
14 47 8 40 15 79 28 141 11 56 10 334 -1 334 -4 0 -7 18 -8 41 -1 22 -5 46 -9
52 -4 7 -9 23 -11 37 -1 14 -5 32 -9 40 -3 8 -8 26 -10 40 -2 13 -9 28 -15 31
-6 4 -7 12 -4 18 4 6 3 11 -3 11 -6 0 -13 11 -17 25 -3 14 -10 25 -16 25 -5 0
-7 4 -3 9 3 5 -2 16 -11 25 -8 9 -12 20 -9 26 3 6 -1 13 -9 16 -9 3 -14 10
-11 14 2 4 -4 18 -15 30 -11 13 -20 28 -20 33 0 5 -12 22 -27 38 -16 15 -46
46 -68 68 -22 23 -59 60 -82 84 -24 23 -43 45 -43 50 0 4 -6 7 -14 7 -8 0 -16
4 -18 9 -1 5 -10 11 -18 13 -8 2 -21 11 -28 21 -7 9 -17 15 -22 12 -4 -3 -13
2 -20 10 -7 8 -21 15 -32 15 -10 0 -16 5 -13 10 3 6 -1 10 -9 10 -9 0 -16 5
-16 10 0 6 -9 10 -20 10 -11 0 -20 4 -20 9 0 9 -33 23 -58 25 -7 1 -16 6 -20
11 -4 6 -16 10 -27 10 -11 0 -32 5 -47 12 -15 7 -36 13 -48 13 -11 0 -20 4
-20 8 0 12 -493 12 -507 0 -7 -5 -38 -11 -70 -12 -32 -2 -65 -6 -73 -9 -8 -4
-28 -8 -45 -9 -16 -2 -33 -7 -36 -11 -3 -5 -31 -9 -63 -10 -31 -1 -56 -5 -56
-9 0 -5 -11 -8 -24 -8 -14 0 -28 -4 -31 -10 -3 -5 -17 -10 -30 -10 -13 0 -27
-4 -30 -10 -3 -5 -17 -10 -30 -10 -13 0 -27 -4 -30 -10 -3 -5 -17 -10 -30 -10
-13 0 -30 -6 -37 -13 -7 -7 -23 -12 -35 -11 -13 1 -23 -3 -23 -7 0 -5 -11 -9
-24 -9 -14 0 -28 -4 -31 -10 -3 -5 -16 -10 -29 -10 -12 0 -26 -4 -32 -10 -5
-5 -22 -11 -37 -12 -15 -1 -27 -6 -27 -10 0 -4 -9 -8 -20 -8 -11 0 -20 -4 -20
-10 0 -5 -11 -10 -24 -10 -14 0 -28 -4 -31 -10 -3 -5 -14 -10 -24 -10 -10 0
-24 -7 -31 -15 -7 -8 -16 -12 -21 -9 -5 3 -9 0 -9 -5 0 -6 -9 -11 -20 -11 -11
0 -20 -4 -20 -8 0 -5 -22 -14 -50 -21 -27 -7 -50 -17 -50 -22 0 -5 -9 -9 -20
-9 -11 0 -20 -3 -20 -7 0 -8 -48 -33 -62 -33 -5 0 -26 -11 -47 -24 -21 -14
-42 -22 -45 -19 -3 4 -6 1 -6 -5 0 -7 -9 -12 -19 -12 -11 0 -21 -3 -23 -7 -2
-6 -66 -40 -88 -47 -2 0 -15 -11 -29 -23 -13 -13 -32 -23 -42 -23 -11 0 -19
-4 -19 -10 0 -5 -8 -10 -18 -10 -10 0 -25 -9 -35 -20 -9 -11 -24 -20 -32 -20
-8 0 -15 -4 -15 -10 0 -5 -9 -10 -20 -10 -11 0 -20 -4 -20 -10 0 -5 -7 -10
-16 -10 -8 0 -29 -13 -47 -30 -18 -16 -36 -30 -41 -30 -5 0 -19 -11 -32 -26
-13 -14 -24 -20 -24 -15 0 6 -9 3 -20 -7 -12 -9 -24 -17 -28 -17 -4 0 -21 -12
-37 -27 -16 -16 -33 -28 -38 -28 -4 0 -17 -9 -29 -20 -12 -11 -28 -20 -35 -20
-7 0 -13 -4 -13 -9 0 -15 -70 -18 -82 -4 -6 7 -16 13 -22 13 -7 0 -25 14 -41
30 -16 17 -35 30 -42 30 -7 0 -13 5 -13 10 0 6 -7 10 -15 10 -8 0 -15 5 -15
10 0 6 -3 9 -8 8 -4 -2 -18 7 -32 20 -13 12 -32 22 -42 22 -10 0 -18 5 -18 11
0 16 -42 48 -62 49 -10 0 -18 5 -18 10 0 6 -9 10 -20 10 -11 0 -20 5 -20 10 0
6 -6 10 -14 10 -7 0 -19 7 -26 15 -7 9 -32 25 -55 35 -23 10 -48 26 -55 35 -7
8 -21 15 -31 15 -11 0 -19 4 -19 9 0 8 -37 24 -52 22 -3 0 -12 6 -18 14 -7 8
-18 15 -25 15 -6 0 -20 9 -30 20 -10 11 -26 20 -37 20 -10 0 -18 4 -18 9 0 5
-12 9 -26 9 -15 0 -29 4 -33 9 -6 10 -32 21 -42 19 -4 0 -15 6 -25 14 -29 23
-62 40 -79 40 -8 0 -15 4 -15 9 0 9 -27 20 -70 28 -13 2 -27 8 -30 12 -4 6
-36 22 -50 25 -3 1 -12 6 -20 11 -8 5 -24 11 -35 12 -11 2 -24 8 -29 13 -6 6
-18 10 -28 10 -10 0 -18 5 -18 11 0 5 -4 8 -8 5 -5 -3 -20 1 -35 9 -15 8 -27
11 -27 8 0 -3 -9 2 -20 12 -11 10 -20 15 -20 12 0 -4 -30 4 -67 18 -37 13 -70
22 -74 19 -4 -2 -9 0 -11 5 -1 5 -23 11 -47 15 -24 3 -50 11 -57 17 -7 6 -17
8 -22 5 -6 -3 -15 0 -21 7 -6 8 -26 13 -46 12 -19 0 -35 2 -35 6 0 3 -26 11
-57 17 -32 6 -78 16 -103 22 -25 6 -64 13 -87 15 -22 1 -47 6 -55 11 -20 12
-493 13 -515 0z"/>
</g>
</svg>
