<?xml version="1.0" standalone="no"?>
<!DOCTYPE svg PUBLIC "-//W3C//DTD SVG 20010904//EN"
 "http://www.w3.org/TR/2001/REC-SVG-20010904/DTD/svg10.dtd">
<svg version="1.0" xmlns="http://www.w3.org/2000/svg"
 width="800.000000pt" height="800.000000pt" viewBox="0 0 800.000000 800.000000"
 preserveAspectRatio="xMidYMid meet">
<metadata>
Created by potrace 1.11, written by Peter Selinger 2001-2013
</metadata>
<g transform="translate(0.000000,800.000000) scale(0.100000,-0.100000)"
fill="#000000" stroke="none">
<path d="M0 4000 l0 -4000 4000 0 4000 0 0 4000 0 4000 -4000 0 -4000 0 0
-4000z m4455 1763 c527 -122 805 -465 755 -929 -38 -352 -242 -606 -595 -739
-58 -22 -59 -23 -30 -30 176 -38 252 -65 369 -134 152 -89 277 -227 355 -392
70 -147 86 -227 86 -429 -1 -145 -5 -190 -23 -262 -79 -319 -263 -552 -550
-701 -170 -88 -316 -128 -525 -147 -62 -5 -412 -10 -779 -10 l-668 0 0 1900 0
1901 758 -4 c724 -3 761 -4 847 -24z"/>
<path d="M3300 4825 l0 -585 343 0 c495 0 632 17 805 100 196 93 292 263 292
515 0 260 -101 416 -321 496 -144 52 -220 59 -691 59 l-428 0 0 -585z"/>
<path d="M3300 3120 l0 -740 404 0 c422 0 555 8 681 40 254 65 430 238 497
489 28 108 28 315 0 423 -81 301 -293 467 -665 517 -45 6 -257 11 -498 11
l-419 0 0 -740z"/>
</g>
</svg>
